<svg width="95" height="94" viewBox="0 0 95 94" fill="none" xmlns="http://www.w3.org/2000/svg">
<path d="M47.6846 5.875C24.974 5.875 6.55957 24.2895 6.55957 47C6.55957 69.7105 24.974 88.125 47.6846 88.125C70.3951 88.125 88.8096 69.7105 88.8096 47C88.8096 24.2895 70.3951 5.875 47.6846 5.875ZM47.6846 81.1484C28.8295 81.1484 13.5361 65.8551 13.5361 47C13.5361 28.1449 28.8295 12.8516 47.6846 12.8516C66.5396 12.8516 81.833 28.1449 81.833 47C81.833 65.8551 66.5396 81.1484 47.6846 81.1484Z" fill="#f8d41f"/>
<path d="M63.7215 58.6215L50.6312 49.1572V26.4375C50.6312 26.0336 50.3008 25.7031 49.8969 25.7031H45.4814C45.0775 25.7031 44.7471 26.0336 44.7471 26.4375V51.7184C44.7471 51.957 44.8572 52.1773 45.05 52.315L60.2332 63.3857C60.5637 63.6244 61.0227 63.551 61.2613 63.2297L63.8867 59.6496C64.1254 59.31 64.0519 58.851 63.7215 58.6215V58.6215Z" fill="#f8d41f"/>
</svg>
