<svg width="91" height="77" viewBox="0 0 91 77" fill="none" xmlns="http://www.w3.org/2000/svg">
<path d="M45.3804 19.1886C43.1553 19.1886 40.9803 19.7531 39.1302 20.8107C37.2802 21.8683 35.8382 23.3715 34.9867 25.1303C34.1352 26.889 33.9125 28.8243 34.3465 30.6913C34.7806 32.5584 35.8521 34.2734 37.4254 35.6195C38.9988 36.9656 41.0033 37.8823 43.1856 38.2537C45.3679 38.625 47.6299 38.4344 49.6856 37.7059C51.7412 36.9774 53.4982 35.7438 54.7344 34.161C55.9706 32.5781 56.6304 30.7172 56.6304 28.8136C56.627 26.2618 55.4406 23.8153 53.3316 22.0109C51.2225 20.2065 48.363 19.1915 45.3804 19.1886V19.1886ZM45.3804 33.6261C44.2679 33.6261 43.1803 33.3438 42.2553 32.815C41.3303 32.2862 40.6093 31.5346 40.1835 30.6553C39.7578 29.7759 39.6464 28.8083 39.8635 27.8747C40.0805 26.9412 40.6162 26.0837 41.4029 25.4106C42.1896 24.7376 43.1918 24.2793 44.283 24.0936C45.3741 23.9079 46.5051 24.0032 47.533 24.3674C48.5608 24.7317 49.4393 25.3485 50.0574 26.1399C50.6755 26.9313 51.0054 27.8618 51.0054 28.8136C51.0036 30.0895 50.4105 31.3127 49.3559 32.2149C48.3014 33.1171 46.8717 33.6246 45.3804 33.6261V33.6261Z" fill="#f8d41f"/>
<path d="M66.9984 10.3043C61.6534 5.73248 54.5184 3.01664 46.9706 2.68093C39.4227 2.34522 31.997 4.41343 26.1267 8.48641C20.2564 12.5594 16.3576 18.3484 15.1827 24.7361C14.0079 31.1239 15.6403 37.6575 19.765 43.0761L41.0181 70.9905C41.4911 71.6117 42.1378 72.122 42.8996 72.4753C43.6613 72.8285 44.5141 73.0135 45.3806 73.0135C46.2471 73.0135 47.0999 72.8285 47.8616 72.4753C48.6234 72.122 49.2701 71.6117 49.7431 70.9905L70.9969 43.0761C74.8241 38.0496 76.5155 32.0503 75.7875 26.0838C75.0595 20.1173 71.9565 14.5462 66.9984 10.3043V10.3043ZM66.2839 40.4492L45.3807 67.903L24.4773 40.4492C18.0789 32.0455 19.4512 20.7993 27.7403 13.7072C30.0569 11.7252 32.807 10.153 35.8338 9.08035C38.8605 8.00771 42.1046 7.45562 45.3807 7.45562C48.6568 7.45562 51.9009 8.00771 54.9276 9.08035C57.9543 10.153 60.7045 11.7252 63.021 13.7072C71.3102 20.7993 72.6823 32.0455 66.2839 40.4492Z" fill="#f8d41f"/>
</svg>
