<svg width="73" height="71" viewBox="0 0 73 71" fill="none" xmlns="http://www.w3.org/2000/svg">
<path d="M55.8739 38.4515C55.5223 38.1043 55.1048 37.8289 54.6452 37.6409C54.1857 37.453 53.693 37.3562 53.1955 37.3562C52.6979 37.3562 52.2053 37.453 51.7457 37.6409C51.2861 37.8289 50.8686 38.1043 50.5171 38.4515L44.4784 44.4061C41.6787 43.5843 36.4545 41.7165 33.1435 38.4515C29.8324 35.1866 27.9382 30.0352 27.1048 27.2745L33.1435 21.32C33.4956 20.9733 33.775 20.5617 33.9655 20.1085C34.1561 19.6553 34.2543 19.1695 34.2543 18.6789C34.2543 18.1883 34.1561 17.7025 33.9655 17.2493C33.775 16.7961 33.4956 16.3844 33.1435 16.0378L17.9899 1.09529C17.6384 0.748079 17.2209 0.472622 16.7613 0.28468C16.3017 0.096738 15.8091 0 15.3115 0C14.814 0 14.3213 0.096738 13.8617 0.28468C13.4021 0.472622 12.9846 0.748079 12.6331 1.09529L2.359 11.2263C0.919414 12.6458 0.108697 14.5958 0.139004 16.5869C0.226137 21.9064 1.65436 40.3828 16.4215 54.9443C31.1887 69.5058 49.9261 70.9103 55.3245 71H55.4306C57.4309 71 59.3213 70.223 60.7533 68.8109L71.0274 58.6799C71.3795 58.3333 71.6589 57.9216 71.8495 57.4684C72.0401 57.0152 72.1382 56.5294 72.1382 56.0388C72.1382 55.5482 72.0401 55.0624 71.8495 54.6092C71.6589 54.156 71.3795 53.7444 71.0274 53.3977L55.8739 38.4515ZM55.3927 63.525C50.6648 63.4466 34.4884 62.1951 21.7783 49.6584C9.02658 37.0843 7.79156 21.0771 7.71579 16.5085L15.3115 9.01855L25.1083 18.6789L20.2099 23.509C19.7646 23.9478 19.4372 24.489 19.2573 25.0838C19.0774 25.6787 19.0507 26.3083 19.1795 26.9159C19.2704 27.3455 21.4942 37.5326 27.7829 43.7337C34.0716 49.9348 44.4026 52.1276 44.8383 52.2173C45.454 52.3479 46.0933 52.3236 46.697 52.1467C47.3008 51.9698 47.8497 51.6459 48.2933 51.2049L53.1955 46.3748L62.9922 56.0351L55.3927 63.525V63.525Z" fill="#f8d41f"/>
</svg>
